<?xml version="1.0" standalone="no"?>
<!DOCTYPE svg PUBLIC "-//W3C//DTD SVG 20010904//EN"
 "http://www.w3.org/TR/2001/REC-SVG-20010904/DTD/svg10.dtd">
<svg version="1.0" xmlns="http://www.w3.org/2000/svg"
 width="461.000000pt" height="461.000000pt" viewBox="0 0 461.000000 461.000000"
 preserveAspectRatio="xMidYMid meet">
<metadata>
Created by potrace 1.14, written by Peter Selinger 2001-2017
</metadata>
<g transform="translate(0.000000,461.000000) scale(0.100000,-0.100000)"
fill="#000000" stroke="none">
<path d="M590 3870 c0 -5 3 -10 8 -10 4 0 26 -17 48 -38 99 -89 221 -200 266
-242 l49 -46 -34 -34 c-72 -73 -195 -284 -199 -340 0 -3 -4 -13 -10 -23 -5
-10 -11 -26 -13 -35 -2 -9 -10 -35 -18 -57 -19 -49 -29 -80 -27 -80 1 0 -8
-25 -20 -55 -11 -30 -23 -66 -26 -80 -3 -13 -9 -29 -14 -35 -4 -5 -8 -13 -8
-18 0 -4 -13 -45 -28 -90 -16 -45 -29 -84 -29 -87 -1 -3 -7 -18 -14 -34 -6
-16 -13 -36 -15 -45 -2 -9 -7 -27 -13 -41 -15 -37 -55 -153 -58 -170 -2 -8 -4
-16 -5 -17 -2 -2 -3 -6 -5 -10 -1 -5 -4 -15 -7 -23 -4 -8 -12 -31 -18 -50 -7
-19 -49 -144 -95 -277 -46 -134 -81 -243 -78 -243 3 0 1 -6 -5 -12 -5 -7 -34
-83 -62 -168 -29 -85 -75 -218 -102 -295 -55 -152 -65 -240 -39 -318 19 -56
100 -133 179 -170 l67 -32 1405 0 c1312 0 1409 1 1470 18 169 46 283 110 400
227 88 88 140 148 140 164 0 5 6 17 14 25 20 24 93 169 111 221 1 3 5 12 8 20
7 17 127 359 131 375 2 6 6 17 9 25 3 8 18 53 33 100 14 47 30 90 34 95 5 6 8
12 9 15 0 8 7 32 30 100 13 36 24 70 25 75 3 10 7 22 29 80 6 17 12 35 14 40
1 6 20 64 43 130 23 66 43 125 44 130 1 6 8 20 14 33 7 12 11 22 8 22 -3 0 2
16 9 34 8 19 11 37 7 39 -15 9 -2002 3 -2002 -5 0 -5 20 -30 44 -56 25 -26 53
-56 63 -68 10 -12 54 -60 97 -108 43 -47 88 -97 100 -110 58 -66 148 -165 206
-228 l66 -70 72 1 c72 0 72 0 61 -22 -7 -12 -12 -24 -11 -27 2 -5 -24 -93 -38
-125 -16 -40 -44 -120 -45 -130 -1 -5 -7 -23 -14 -40 -7 -16 -13 -38 -14 -47
-1 -10 -6 -18 -11 -18 -5 0 -7 -3 -3 -6 3 -4 0 -19 -9 -35 -8 -16 -15 -31 -15
-34 -10 -74 19 -71 -819 -70 -653 0 -745 2 -748 15 -1 8 45 155 104 325 58
171 112 328 119 350 25 74 106 310 112 325 3 8 7 20 9 25 1 6 25 74 52 152 27
78 46 144 41 145 -7 3 -132 116 -223 202 -22 21 -56 50 -73 64 -18 13 -33 27
-33 31 0 7 133 8 1782 13 692 1 1257 6 1255 9 -1 3 3 12 9 20 11 14 34 76 34
92 0 4 7 21 15 37 8 16 15 31 15 32 -1 2 1 10 4 18 3 8 21 62 41 120 20 58 53
157 75 222 26 75 40 134 40 167 l0 51 -2010 0 c-1333 0 -2010 -3 -2010 -10z"/>
</g>
</svg>
